<?xml version="1.0" encoding="UTF-8" standalone="no"?>
<svg
   xmlns:dc="http://purl.org/dc/elements/1.1/"
   xmlns:cc="http://creativecommons.org/ns#"
   xmlns:rdf="http://www.w3.org/1999/02/22-rdf-syntax-ns#"
   xmlns:svg="http://www.w3.org/2000/svg"
   xmlns="http://www.w3.org/2000/svg"
   xmlns:sodipodi="http://sodipodi.sourceforge.net/DTD/sodipodi-0.dtd"
   xmlns:inkscape="http://www.inkscape.org/namespaces/inkscape"
   width="24"
   height="24"
   fill="currentColor"
   class="bi bi-heart"
   viewBox="0 0 16 16"
   version="1.1"
   id="svg4"
   sodipodi:docname="heart.svg"
   inkscape:version="1.0.2 (e86c870879, 2021-01-15)">
  <metadata
     id="metadata10">
    <rdf:RDF>
      <cc:Work
         rdf:about="">
        <dc:format>image/svg+xml</dc:format>
        <dc:type
           rdf:resource="http://purl.org/dc/dcmitype/StillImage" />
      </cc:Work>
    </rdf:RDF>
  </metadata>
  <defs
     id="defs8" />
  <sodipodi:namedview
     pagecolor="#ffffff"
     bordercolor="#666666"
     borderopacity="1"
     objecttolerance="10"
     gridtolerance="10"
     guidetolerance="10"
     inkscape:pageopacity="0"
     inkscape:pageshadow="2"
     inkscape:window-width="1364"
     inkscape:window-height="766"
     id="namedview6"
     showgrid="false"
     inkscape:zoom="23.791667"
     inkscape:cx="12"
     inkscape:cy="12"
     inkscape:window-x="0"
     inkscape:window-y="0"
     inkscape:window-maximized="0"
     inkscape:current-layer="svg4"
     inkscape:document-rotation="0" />
  <path
     d="M 8.0001385,2.9312417 7.2831166,2.1451111 C 5.6000654,0.29978416 2.5139714,0.93658188 1.3999374,3.256574 0.87692157,4.3477702 0.75891797,5.9232314 1.713947,7.9338912 2.633975,9.8698847 4.5480333,12.188813 8.0001385,14.714671 11.452244,12.188813 13.365302,9.8698847 14.28633,7.9338912 15.241359,5.9221648 15.124356,4.3477702 14.60034,3.256574 13.486306,0.93658188 10.400212,0.2987175 8.7171603,2.1440445 Z M 8.0001385,16 C -7.3333286,5.1925673 3.2789947,-3.2426037 7.8241331,1.2192476 7.8841349,1.2779136 7.9431367,1.3387139 8.0001385,1.401647 A 3.120095,3.3279885 0 0 1 8.1761438,1.2203143 C 12.720282,-3.244737 23.333606,5.1915006 8.0001385,16 Z"
     id="path2"
     style="stroke-width:1.03281" />
</svg>
