<?xml version="1.0" encoding="UTF-8" standalone="no"?>
<svg
   xmlns:dc="http://purl.org/dc/elements/1.1/"
   xmlns:cc="http://creativecommons.org/ns#"
   xmlns:rdf="http://www.w3.org/1999/02/22-rdf-syntax-ns#"
   xmlns:svg="http://www.w3.org/2000/svg"
   xmlns="http://www.w3.org/2000/svg"
   xmlns:sodipodi="http://sodipodi.sourceforge.net/DTD/sodipodi-0.dtd"
   xmlns:inkscape="http://www.inkscape.org/namespaces/inkscape"
   width="24"
   height="24"
   fill="currentColor"
   class="bi bi-house-door"
   viewBox="0 0 16 16"
   version="1.1"
   id="svg4"
   sodipodi:docname="home.svg"
   inkscape:version="1.0.2-2 (e86c870879, 2021-01-15)">
  <metadata
     id="metadata10">
    <rdf:RDF>
      <cc:Work
         rdf:about="">
        <dc:format>image/svg+xml</dc:format>
        <dc:type
           rdf:resource="http://purl.org/dc/dcmitype/StillImage" />
      </cc:Work>
    </rdf:RDF>
  </metadata>
  <defs
     id="defs8" />
  <sodipodi:namedview
     pagecolor="#ffffff"
     bordercolor="#666666"
     borderopacity="1"
     objecttolerance="10"
     gridtolerance="10"
     guidetolerance="10"
     inkscape:pageopacity="0"
     inkscape:pageshadow="2"
     inkscape:window-width="1680"
     inkscape:window-height="1053"
     id="namedview6"
     showgrid="false"
     inkscape:zoom="35.6875"
     inkscape:cx="8"
     inkscape:cy="9.8400467"
     inkscape:window-x="-9"
     inkscape:window-y="-9"
     inkscape:window-maximized="1"
     inkscape:current-layer="svg4"
     inkscape:document-rotation="0" />
  <path
     d="m 8.4538651,0.19262072 c -0.2391007,-0.22312457 -0.6274015,-0.22312457 -0.8665022,0 L 0.05229455,7.3229187 c -0.03378086,1.3358878 0.0094203,5.7927063 0.01314444,8.0827593 3.3e-7,0.314587 0.27397374,0.569608 0.61193688,0.569608 H 6.1848045 c 0.3379628,0 0.6119358,-0.255021 0.6119361,-0.569608 v -4.556855 h 2.447746 v 4.556855 c 4e-7,0.314587 0.273974,0.569608 0.6119377,0.569608 H 15.36385 c 0.337961,-1e-6 0.611934,-0.255023 0.611934,-0.569608 V 7.4311842 Z M 0.96158375,15.150995 0.94666366,7.5887373 8.0334725,1.0558582 l 7.0497125,6.7058796 0.07006,7.4444502 -4.8573,-0.03691 -0.02532,-4.921171 c 0,-0.314585 -0.124832,-0.3406474 -0.4627954,-0.3406474 L 6.2697916,9.9068935 C 5.931836,9.9068393 5.826742,10.018211 5.8267424,10.332797 l -0.028913,4.820906 z"
     id="path2"
     style="stroke-width:1.18082"
     sodipodi:nodetypes="ccccsscccccccccccccccccsccc" />
</svg>
