<svg width="24" height="24" viewBox="0 0 24 24" fill="none" xmlns="http://www.w3.org/2000/svg">
<path d="M20.9912 17C19.3392 17 18 15.6608 18 14.0088V2.9912C18 1.33921 19.3392 0 20.9912 0C22.6432 0 23.9824 1.33921 23.9824 2.9912V14.0088C23.9824 15.6608 22.6432 17 20.9912 17ZM20.9912 24C19.3392 24 18 22.652 18 21C18 19.348 19.3392 18 20.9912 18C22.6432 18 23.9824 19.348 23.9824 21C23.9824 22.652 22.6432 24 20.9912 24Z" fill="#2563EB"/>
<path fill-rule="evenodd" clip-rule="evenodd" d="M12.928 0.47324C11.7334 0.157775 10.3894 0 8.896 0C7.488 0 6.22934 0.180254 5.12 0.540845C4.032 0.878873 3.104 1.41972 2.336 2.16338C1.568 2.90704 0.981336 3.88732 0.576 5.10423C0.192 6.29856 0 7.74084 0 9.43099C0 12.3155 0.64 14.5126 1.92 16.0225C3.2 17.5099 5.00266 18.2535 7.328 18.2535C7.584 18.2535 7.98936 18.231 8.544 18.1859C9.12 18.1634 9.728 18.0057 10.368 17.7127C10.6282 17.5974 10.8735 17.4455 11.104 17.257V21.152C11.104 22.7249 12.3791 24 13.952 24C15.5249 24 16.8 22.7249 16.8 21.152V5.10423C16.8 3.79716 16.448 2.78307 15.744 2.06197C15.0614 1.31831 14.1226 0.788705 12.928 0.47324ZM8.5 6C7.11929 6 6 7.11929 6 8.5V9.5C6 10.8807 7.11929 12 8.5 12C9.88071 12 11 10.8807 11 9.5V8.5C11 7.11929 9.88071 6 8.5 6Z" fill="#2563EB"/>
</svg>
