<?xml version="1.0" encoding="UTF-8" standalone="no"?>
<svg
   xmlns:dc="http://purl.org/dc/elements/1.1/"
   xmlns:cc="http://creativecommons.org/ns#"
   xmlns:rdf="http://www.w3.org/1999/02/22-rdf-syntax-ns#"
   xmlns:svg="http://www.w3.org/2000/svg"
   xmlns="http://www.w3.org/2000/svg"
   xmlns:sodipodi="http://sodipodi.sourceforge.net/DTD/sodipodi-0.dtd"
   xmlns:inkscape="http://www.inkscape.org/namespaces/inkscape"
   width="24"
   height="24"
   fill="currentColor"
   class="bi bi-chat"
   viewBox="0 0 16 16"
   version="1.1"
   id="svg4"
   sodipodi:docname="message.svg"
   inkscape:version="1.0.2 (e86c870879, 2021-01-15)">
  <metadata
     id="metadata10">
    <rdf:RDF>
      <cc:Work
         rdf:about="">
        <dc:format>image/svg+xml</dc:format>
        <dc:type
           rdf:resource="http://purl.org/dc/dcmitype/StillImage" />
      </cc:Work>
    </rdf:RDF>
  </metadata>
  <defs
     id="defs8" />
  <sodipodi:namedview
     pagecolor="#ffffff"
     bordercolor="#666666"
     borderopacity="1"
     objecttolerance="10"
     gridtolerance="10"
     guidetolerance="10"
     inkscape:pageopacity="0"
     inkscape:pageshadow="2"
     inkscape:window-width="1364"
     inkscape:window-height="766"
     id="namedview6"
     showgrid="false"
     inkscape:zoom="23.791667"
     inkscape:cx="12"
     inkscape:cy="12"
     inkscape:window-x="0"
     inkscape:window-y="0"
     inkscape:window-maximized="0"
     inkscape:current-layer="svg4" />
  <path
     d="m 2.678,11.673745 a 1,1.071576 0 0 1 0.287,0.858334 10.97,11.755189 0 0 1 -0.398,2.143153 C 3.962,14.32911 4.814,13.928342 5.201,13.718311 A 1,1.071576 0 0 1 5.911,13.640017 8.06,8.6369021 0 0 0 8,13.930483 c 3.996,0 7,-3.007911 7,-6.4294516 0,-3.4204704 -3.004,-6.4294556 -7,-6.4294556 -3.996,0 -7,3.0089852 -7,6.4294556 0,1.5730732 0.617,3.0325576 1.678,4.1727136 z M 2.185,15.85825 a 21.682,23.23391 0 0 1 -0.713,0.138233 c -0.2,0.03429 -0.352,-0.188598 -0.273,-0.387912 a 9.68,10.372855 0 0 0 0.244,-0.682593 l 0.003,-0.01071 C 1.694,14.143728 1.896,13.256465 1.97,12.430278 0.743,11.112241 0,9.3870052 0,7.5010314 0,3.3583187 3.582,0 8,0 12.418,0 16,3.3583187 16,7.5010314 16,11.643741 12.418,15.00206 8,15.00206 a 9.06,9.7084779 0 0 1 -2.347,-0.3279 c -0.52,0.281822 -1.640,0.79511 -3.468,1.18409 z"
     id="path2"
     style="stroke-width:1.03519" />
</svg>
